# xmcd
#
# Track frame offsets:
#	150
#	10770
#	23550
#	34102
#	48950
#	65765
#	76717
#	88365
#	100467
#	112912
#
# Disc length: 1694 seconds
#
# Revision: 3
# Processed by: cddbd v1.5.2PL0 Copyright (c) Steve Scherf et al.
# Submitted via: audiograbber 1.83.01
#
DISCID=72069c0a
DTITLE=Glen Campbell  - Country Gold
DYEAR=1991
DGENRE=Country
TTITLE0=Together Again
TTITLE1=Rose Garden
TTITLE2=Help Me Make It Through The Night
TTITLE3=Your Cheatin' Heart
TTITLE4=Yesterday, When I Was Young 
TTITLE5=I'm So Lonesome I Could Cry 
TTITLE6=Lovesick Blues 
TTITLE7=I Can't Help It (If I'm StillIn Love With You)
TTITLE8=Cold, Cold Heart 
TTITLE9=She Thinks I Still Care 
EXTD=
EXTT0=
EXTT1=
EXTT2=
EXTT3=
EXTT4=
EXTT5=
EXTT6=
EXTT7=
EXTT8=
EXTT9=
PLAYORDER=
